<?xml version="1.0" encoding="UTF-8"?>
<svg width="700pt" height="700pt" version="1.1" viewBox="50 0 600 550"
    xmlns="http://www.w3.org/2000/svg"
    xmlns:xlink="http://www.w3.org/1999/xlink">
    <g>
        <path d="m300.61 227.41c0 9.2734-7.5156 16.789-16.789 16.789-9.2734 0-16.789-7.5156-16.789-16.789 0-9.2695 7.5156-16.785 16.789-16.785 9.2734 0 16.789 7.5156 16.789 16.785"/>
        <path d="m432.45 227.41c0 9.2734-7.5156 16.789-16.789 16.789-9.2695 0-16.789-7.5156-16.789-16.789 0-9.2695 7.5195-16.785 16.789-16.785 9.2734 0 16.789 7.5156 16.789 16.785"/>
        <path d="m242.67 259.18c-6.2422-9.4414-9.543-20.445-9.543-31.824 0-31.742 25.82-57.566 57.566-57.566 22.707 0 43.391 13.453 52.684 34.273 1.125 2.5195 3.6289 4.1445 6.3945 4.1445h0.015624c2.7656-0.003907 5.2656-1.6406 6.3906-4.1719 9.1914-20.805 29.82-34.242 52.566-34.242 24.629 0 46.523 15.641 54.48 38.926 1.2539 3.6562 5.2305 5.6094 8.8867 4.3555 3.6562-1.25 5.6094-5.2305 4.3555-8.8867-9.8945-28.945-37.117-48.395-67.73-48.395-23.852 0-45.836 11.891-58.992 31.125-13.238-19.234-35.254-31.125-59.059-31.125-39.465 0-71.566 32.105-71.566 71.566 0 14.133 4.0977 27.809 11.859 39.547 1.3438 2.0391 3.5781 3.1406 5.8477 3.1406 1.3281 0 2.6719-0.375 3.8516-1.1641 3.2383-2.1289 4.125-6.4766 1.9922-9.7031z"/>
        <path d="m472.81 216.59c-3.8516 0.21875-6.8086 3.5273-6.5898 7.3867 0.066406 1.1211 0.09375 2.25 0.09375 3.3867 0 25.934-17.41 48.547-42.027 55.508-10.742-16.754-30.105-33.266-51.961-50.805-14.711-12.27-30.52-12.188-45.023-0.085938-21.902 17.578-41.273 34.086-52.023 50.832-7.9922-2.2188-15.488-6.0703-21.852-11.484-2.9414-2.4961-7.3516-2.1445-9.8711 0.78906-2.5039 2.9453-2.1523 7.3594 0.79687 9.8672 7.2109 6.1445 15.586 10.742 24.535 13.609-1.5234 4.3164-2.4375 8.6758-2.5273 13.086-0.19141 2.4961 0.21875 5.0586 1.0547 7.6211 0 0.003906 0.003907 0.003906 0.003907 0.011719 3.5273 10.797 14.785 21.617 22.277 27.91 16.699 13.172 23.211 26.395 28.863 39.91 3.6328 10.617 15.836 17.457 31.207 17.457 15.367 0 27.574-6.8438 31.207-17.457 5.6562-13.52 12.168-26.746 29.031-40.047 7.1406-5.9961 17.902-16.34 21.758-26.809 0.035156-0.10156 0.085937-0.19531 0.11328-0.30078 0.99219-2.7812 1.5117-5.5703 1.3047-8.293-0.089844-4.4336-1.0117-8.8086-2.5469-13.148 29.227-9.4531 49.688-36.836 49.688-68.164 0-1.4062-0.039062-2.8008-0.11719-4.1836-0.22656-3.8633-3.4141-6.8281-7.3945-6.5977zm-136.64 26.223c4.8398-4.0391 9.2852-5.9961 13.598-5.9961s8.7539 1.9648 13.699 6.082c23.387 18.77 55.418 44.477 55.715 66.227 0.003907 0.19141 0.015625 0.37891 0.035157 0.57812 0.015624 0.15234-0.050782 0.37109-0.054688 0.54297-21.402 11.059-42.934 16.93-64.473 17.629 0.011718-0.14062 0.085937-0.25781 0.085937-0.40234l-0.007812-8.2695c0-2.7812-2.2578-5.0391-5.0391-5.0391s-5.0391 2.2578-5.0391 5.0391v8.2656c0 0.12891 0.0625 0.23438 0.074218 0.35938-21.527-0.89062-43.047-6.9453-64.43-18.184 0.011719-0.17188 0.023437-0.34766 0.027344-0.51562 0.28125-21.754 32.316-47.461 55.809-66.316zm31.789 136.15c-0.074219 0.17188-0.13281 0.35156-0.19531 0.53125-1.5234 4.6797-9.0938 8.0859-18 8.0859-8.9023 0-16.469-3.3984-18-8.082-0.054687-0.17969-0.11719-0.35938-0.19531-0.53125-6.1602-14.75-13.797-30.438-33.039-45.605-0.37109-0.30859-0.67578-0.60938-1.0352-0.91797 17.465 6.2109 35.145 9.3867 52.824 9.3867 17.062 0 34.125-2.9414 50.992-8.7305-0.050782 0.039062-0.089844 0.085938-0.14063 0.125-19.41 15.297-27.051 30.984-33.211 45.738z"/>
        <path d="m334.39 287.38c3.8633 0 7-3.1367 7-7v-6.8711c0-3.8633-3.1367-7-7-7s-7 3.1367-7 7v6.875c0 3.8672 3.1289 6.9961 7 6.9961z"/>
        <path d="m365.12 287.38c3.8633 0 7-3.1367 7-7v-6.8711c0-3.8633-3.1367-7-7-7-3.8633 0-7 3.1367-7 7v6.875c0 3.8672 3.1367 6.9961 7 6.9961z"/>
        <path d="m527.19 171.71c-0.55859 0-1.125 0.050781-1.6797 0.066406-20.363-40.008-61.93-67.496-109.83-67.496-15.012 0-29.691 2.6953-43.617 8.0078-14.379 5.4805-30.219 5.4883-44.586 0.003907-10.992-4.1875-22.457-6.6875-34.16-7.582-0.80078-0.25391-1.6367-0.42578-2.5195-0.42578-0.64844 0-1.2773 0.089844-1.8828 0.23047-1.7031-0.066406-3.3867-0.23047-5.0977-0.23047-46.473 0-88.895 26.332-109.74 67.48-0.42578-0.003906-0.83594-0.050781-1.2656-0.050781-41.25-0.003906-74.812 32.527-74.812 72.512 0 39.949 33.562 72.453 74.809 72.453 7.7852 0 15.418-1.2031 22.793-3.4766 5.168 5.3867 10.859 10.332 17.039 14.723 1.4609 4.4531 4.5742 13.77 8.5117 24.199 7.3711 19.652 13.895 33.324 19.41 40.645 14.688 19.434 37.062 37.418 38 38.176 2.5195 2.0117 5.9805 2.4023 8.8867 1.0117 2.918-1.3984 4.7656-4.3398 4.7656-7.5703v-6.4961c3.6172 5.2148 7.5156 10.238 11.312 14.027 9.7539 9.7539 27.938 18.047 37.812 22.082 2.7266 1.1523 5.5938 1.7305 8.4453 1.7305 2.8242 0 5.6211-0.55859 8.2617-1.6797 9.9727-4.043 28.168-12.297 38-22.133 3.7734-3.7734 7.6445-8.7656 11.238-13.949v6.418c0 3.2305 1.8477 6.1719 4.7656 7.5703 2.9062 1.3984 6.3633 1.0078 8.8867-1.0117 0.94141-0.75781 23.309-18.738 38.07-38.176 11.301-14.945 24.246-53.465 27.934-64.863 6.1602-4.3945 11.891-9.3789 17.148-14.812 7.4766 2.3398 15.215 3.5898 23.109 3.5898 41.238-0.007813 74.801-32.508 74.801-72.457 0-39.984-33.562-72.516-74.809-72.516zm-412.39 72.516c0-28.828 22.922-52.613 52.18-55.43-1.8945 5.7188-3.3555 11.555-4.375 17.477-18.02 4.3398-31.309 19.867-31.309 37.953 0 5.1133 1.0352 10.086 3.0703 14.773 1.5352 3.543 5.6602 5.1758 9.2109 3.6328 3.543-1.5352 5.1758-5.6602 3.6289-9.207-1.2695-2.918-1.9102-6.0156-1.9102-9.1992 0-9.8555 6.3789-18.504 15.602-22.613-0.089844 1.9102-0.19141 3.8086-0.19141 5.7734 0 14.34 2.4453 28.258 7.2109 41.531-4.5117-0.75781-8.8125-2.4805-12.41-5.1523-3.1016-2.3086-7.4805-1.6523-9.7891 1.4453-2.3086 3.1016-1.6641 7.4883 1.4453 9.793 7.2734 5.4023 16.379 8.3828 25.641 8.3828 0.44922 0 0.92969-0.050781 1.3906-0.066407 2.7891 5.4531 5.957 10.656 9.4883 15.566-3.5742 0.64844-7.2031 0.99609-10.875 0.99609-31.984-0.007812-58.008-24.973-58.008-55.656zm360.27 71.449c-1.5664 1.0625-2.7266 2.625-3.2969 4.4336-4.1719 13.277-17.012 50.391-26.176 62.508-6.418 8.4453-14.645 16.789-21.531 23.23v-18.148c0-3.8711-2.6484-7.2422-6.4102-8.1602-3.7969-0.90625-7.6602 0.86328-9.4531 4.2969-0.125 0.24219-11.781 22.602-22.215 34.242-0.27344-4.3906-3.8867-7.8789-8.3477-7.8789-4.6367 0-8.3984 3.7578-8.3984 8.3984v11.66c-3.4062 1.8555-7.1562 3.707-11.219 5.5156l-0.003906-10.23c0-4.6406-3.7617-8.3984-8.3984-8.3984s-8.3984 3.7578-8.3984 8.3984v10.121c-11.73-5.2852-21.156-10.941-25.832-15.625-10.871-10.871-24.008-35.965-24.141-36.215-1.7852-3.4336-5.7109-5.1953-9.4453-4.2773-3.7617 0.92578-6.4062 4.2891-6.4062 8.1602v18.145c-6.8672-6.4297-15.059-14.758-21.441-23.195-4.4023-5.8594-10.473-18.793-17.098-36.445-5.207-13.828-9.0625-25.988-9.1055-26.105-0.57031-1.8086-1.7422-3.3711-3.3086-4.4336-7.5039-5.0625-14.254-11.008-20.145-17.793-6.8594-7.6172-12.555-16.25-16.934-25.676-6.5508-14.078-9.8711-29.16-9.8711-44.812 0-4.9375 0.32031-9.6719 0.94141-14.066v-0.042969c0-0.011719 0.003906-0.027344 0.011719-0.039062 1.3281-10.137 4.1484-20.027 8.3906-29.422 12.617-28.102 36.645-48.832 65.152-57.797v1.3906c0 4.6406 3.7617 8.3984 8.3984 8.3984s8.3984-3.7578 8.3984-8.3984v-5.2344c4.4648-0.63672 9.0039-0.96875 13.59-1.0312v9.4141c0 4.6406 3.7617 8.3984 8.3984 8.3984s8.3984-3.7578 8.3984-8.3984v-8.25c7.6055 1.1094 15.074 2.9453 22.293 5.6953 18.223 6.9492 38.309 6.9453 56.555-0.003906 12.02-4.582 24.672-6.9062 37.637-6.9062 58.656 0 106.37 47.691 106.37 106.3 0 17.684-4.4336 35.23-12.82 50.715-8.1523 14.961-19.961 27.953-34.137 37.562zm52.117-15.801c-3.7852 0-7.5273-0.35156-11.207-1.043 2.918-4.0781 5.6055-8.3164 8.0078-12.719 0.50391-0.92578 0.94141-1.8867 1.418-2.8242 0.59375 0.027344 1.2109 0.085938 1.7852 0.085938 21.41 0 39.168-15.137 41.305-35.211 0.41016-3.8477-2.3789-7.293-6.2227-7.6992-3.7461-0.33984-7.293 2.375-7.6992 6.2227-1.1914 11.199-10.684 20.188-22.484 22.191 4.7539-13.262 7.2031-27.164 7.2031-41.496 0-1.9609-0.10156-3.8594-0.19141-5.7617 5.8594 2.5859 10.672 6.9648 13.363 12.652 1.6445 3.4961 5.8086 4.9961 9.3203 3.3438 3.4961-1.6523 4.9883-5.8242 3.3359-9.3203-5.2969-11.227-15.766-19.27-28.141-22.098-1.043-5.9648-2.5078-11.781-4.375-17.422 29.445 2.6289 52.59 26.48 52.59 55.449 0 30.684-26.023 55.648-58.008 55.648z"/>
        <path d="m349.71 311.64c2.7812 0 5.0391-2.2578 5.0391-5.0391v-9.2227c0-2.7812-2.2578-5.0391-5.0391-5.0391s-5.0391 2.2578-5.0391 5.0391v9.2227c0 2.7812 2.2539 5.0391 5.0391 5.0391z"/>

    </g>
</svg>
