<?xml version="1.0" encoding="UTF-8"?>
<svg width="700pt" height="700pt" version="1.1" viewBox="50 0 600 550"
    xmlns="http://www.w3.org/2000/svg"
    xmlns:xlink="http://www.w3.org/1999/xlink">
    <g>
        <path d="m310.04 271c0 10.977-8.8984 19.875-19.875 19.875-10.977 0-19.875-8.8984-19.875-19.875s8.8984-19.875 19.875-19.875c10.977 0 19.875 8.8984 19.875 19.875"/>
        <path d="m545.51 211.36c-14.699-9.3203-31.188-9.1328-43.293-5.582-3.9414-5.7734-8.3672-11.457-13.367-17.023-5.875-6.4844-13.402-12.402-20.68-18.129-7.2305-5.6836-14.699-11.555-19.82-17.496-0.30078-0.35156-0.62891-0.67188-0.98437-0.96875-0.12891-0.11328-13.328-11.121-26.41-22.98-11.727-10.625-18.996-39.555-20.805-49.805-0.42188-2.3867-1.8555-4.4727-3.9258-5.7227-2.0703-1.2617-4.5859-1.5391-6.8945-0.81641-9.918 3.1602-16.863 14.258-21.051 23.402-4.582-5.7344-7.0625-12.789-6.7969-19.945l0.027344-0.91406c0.003906-0.42188 0.066406-1.6445 0.14453-3.2773 0.14062-2.9414 0.33594-7.0859 0.42578-10.176 0.28516-5.3203 0.45312-8.5273-2.2773-11.414-1.7812-1.8828-4.3867-2.8438-6.9727-2.5859-2.6211 0.27344-5.3047 1.4492-7.9922 3.5234-1.3945 1.0742-2.8828 2.418-4.6367 4.168-4.1445 4.2617-8.3086 9.6992-11.66 14.078-1.5117 1.9766-2.7773 3.6445-3.6523 4.6523-6.1055 6.9883-8.7969 14.359-11.066 21.582-0.26172-1.4766-0.54297-2.9453-0.81641-4.4062-1.9805-10.477-3.6914-19.527-0.52734-28.398 2.6094-7.3711 6.4844-14.992 11.199-22.043 0 0 0.003906-0.003906 0.003906-0.011719 2.5703-3.8516 1.5273-9.0664-2.3242-11.641-3.8594-2.5742-9.0664-1.5391-11.648 2.3125 0 0-0.003907 0.003906-0.003907 0.011718-2.0703 3.1133-6.418 6.4727-10.613 9.7227-2.9805 2.3125-6.0664 4.6992-8.6367 7.2305l-0.63281 0.62109c-9.8008 9.6211-20.91 20.523-22.309 37.152-0.55469 6.5859 0.42188 12.723 1.3594 18.664 0.30078 1.9102 0.60547 3.8242 0.85156 5.7344 1.6289 12.773-3.9648 25.809-18.133 42.281-5.1016 5.9531-12.582 11.832-19.82 17.527-7.2539 5.7109-14.758 11.609-20.625 18.09-5 5.5508-9.4297 11.223-13.379 16.992-11.156-3.3828-28.766-4.6641-44.828 6.1211-14.066 9.4453-21.797 21.609-27.574 43.406-6.457 24.371 3.207 44.105 14.609 61.801 10.113 15.688 41.367 26.945 63.223 33.168-0.90625 4.8594-2.0898 9.7539-3.3477 14.816-2.4961 10.008-5.0781 20.355-5.3555 31.383-0.24219 8.3594 0.71094 24.316 9.8438 37.141 3.9023 5.5547 9.0391 9.5977 13.57 13.164 3.4219 2.6875 6.6523 5.2305 9.0664 8.1211 2.8164 3.375 4.957 7.668 7.2109 12.219 1.418 2.8555 2.8438 5.7109 4.4297 8.4062 2.3867 4.0938 6.8047 8.0547 11.93 12.645 3.5117 3.1484 10.047 9.0039 10.836 11.168 0.33203 4.3398 3.9258 7.7617 8.3438 7.7617 4.6406 0 8.3984-3.7617 8.3984-8.3984 0-0.54297-0.015625-1.0117-0.078125-1.5078-0.15625-3.7852-0.64844-7.5039-1.1211-11.105-0.55859-4.2578-1.0938-8.3164-1.043-12.02 0.77734 3.4727 2.0898 7.5898 4.8438 12.145 2.3516 3.8867 8.2266 17 11.602 24.863 1.5273 3.5625 5.2969 5.6211 9.1328 4.9688 3.832-0.65625 6.707-3.8477 6.9648-7.7188 0.15625-2.3359 2.1562-6.5 4.0156-10.125 2.5469 2.7891 5.0195 5.7852 7.5586 8.875 7.3867 8.9609 15.02 18.227 26.105 23.996 1.2148 0.63281 2.5469 0.95312 3.8789 0.95312 1.3203 0 2.6445-0.3125 3.8516-0.93359 11.148-5.75 18.777-15.055 26.152-24.039 1.2305-1.5078 2.4531-2.9844 3.668-4.4336 0.042969 1.5977 0.11328 3.1523 0.21875 4.6484 0.25391 3.3828 2.5078 6.2734 5.7227 7.3477 3.2031 1.0625 6.7578 0.11328 8.9805-2.4453 6.6094-7.5703 17.848-21.469 18.855-29.508 0.45312-3.4844 3.2969-9.9102 5.9805-13.91 0.23047 0.85156 0.41016 1.7148 0.5 2.4766 0.5 4.4297-0.17187 9.4531-0.89062 14.777-0.48828 3.625-0.99219 7.3633-1.1523 11.172-0.078125 0.66016-0.078125 1.1875-0.078125 1.5195 0 4.625 3.7422 8.3047 8.3672 8.3203h0.035156c4.2969 0 7.8164-3.3047 8.3047-7.4883 0.875-2.3906 7.375-8.2266 10.875-11.367 5.125-4.5859 9.543-8.5469 11.906-12.609 1.5898-2.6992 3-5.5273 4.4062-8.3555 2.2734-4.5625 4.4258-8.8867 7.3008-12.293 2.4258-2.9023 5.6406-5.4414 9.0508-8.1328 4.7383-3.7422 9.6367-7.6055 13.508-13.113 9.1094-12.797 10.129-28.762 9.9297-37.168-0.30859-11.02-2.8711-21.332-5.3555-31.305-1.1758-4.7148-2.2852-9.2773-3.168-13.816 19.887-6.0078 53.625-18.316 63.891-35.078 11.016-17.941 20.234-37.891 13.172-62.145-6.2969-21.719-14.297-33.703-28.504-42.777zm-24.078 39.559c1.832 1.2148 3.5859 2.6055 5.1367 4.3516 4.9219 5.543 7.6055 13.031 7.1719 20.031-0.46875 7.6953-5.2422 15.82-12.746 21.738-2.9102 2.2891-6.0469 4.0547-9.2305 5.2852 8.1836-15.375 11.797-35.047 9.668-51.406zm-333.61 50.637c-6.1875-2.082-11.789-5.6953-15.758-10.555-6.7695-8.3086-8.043-21.855-3.0234-32.219 1.7969-3.707 4.8281-7.8125 9.8555-10.207-2.7344 16.512 0.67969 36.953 8.9258 52.98zm-33.703 6.4297c-10.77-16.711-17.012-31.336-12.492-48.402 5.3359-20.125 11.879-27.836 20.699-33.762 9.168-6.1562 19.234-6.2812 26.422-4.9727-2.2188 4.3359-4.1289 8.7188-5.7578 13.137-11.176 1.5273-20.328 8.4336-25.531 19.18-7.207 14.875-5.3086 33.773 4.6328 45.977 8.3984 10.281 21.426 16.535 34.668 17.199 3.6953 5.7695 6.5234 10.746 7.5195 16.723-25.883-7.7148-45.09-17.219-50.16-25.078zm327.75 115.94c-2.4883 3.543-6.2344 6.5-10.199 9.6328-3.9297 3.1016-7.9922 6.3047-11.504 10.512-4.1562 4.9297-6.8594 10.359-9.4766 15.617-1.2305 2.4688-2.457 4.957-3.8711 7.3516-0.77344 1.332-3.3672 3.8203-5.957 6.1836-0.035157-1.3086-0.078125-2.625-0.23047-3.9609-0.20312-1.707-2.2852-16.801-12.465-20.238-2.5195-0.82813-10.188-3.3281-14.812 5.1055-0.3125 0.57812-0.50391 0.91797-0.92969 1.3945-4.75 5.3633-10.551 16.664-11.594 24.734-0.21094 0.81641-0.92578 2.1836-2.0117 3.9219-0.25391-0.97266-0.54297-1.9375-0.89062-2.8789-0.92969-2.5352-3.0195-4.4727-5.6172-5.2031-2.5938-0.72656-5.3945-0.16797-7.5039 1.5195-6.9648 5.5508-12.473 12.254-17.793 18.75-5.4922 6.6914-10.73 13.082-17 17.426-6.2656-4.3672-11.523-10.746-17.035-17.434-5.3438-6.4844-10.871-13.188-17.84-18.742-2.1055-1.6914-4.8984-2.2461-7.5039-1.5195-2.6055 0.72656-4.6875 2.6641-5.6172 5.2031-0.5 1.3594-1.3672 3.1289-2.3516 5.0508-1.7148-3.6172-3.3594-6.8945-4.5547-8.8633-2.3281-3.8516-2.8789-7.0898-3.457-10.504-0.53906-3.1602-1.1484-6.7383-3.1992-10.188-0.28125-0.47656-0.60547-0.91797-0.97266-1.3203-0.37891-0.42578-0.57031-0.77344-0.88672-1.3438-4.6211-8.4375-12.293-5.9375-14.891-5.0781-10.047 3.3867-12.129 18.504-12.336 20.266-0.15234 1.3281-0.19531 2.6367-0.23047 3.9492-2.6055-2.3789-5.2266-4.8945-6.0195-6.2617-1.4062-2.3867-2.6445-4.8945-3.8867-7.3906-2.5938-5.2266-5.2734-10.617-9.3672-15.52-3.5391-4.2344-7.6211-7.4414-11.562-10.543-3.9688-3.1289-7.7266-6.082-10.242-9.6641-4.6133-6.4727-7.0781-16.297-6.7656-26.98 0.23047-9.2109 2.4766-18.223 4.8594-27.766 1.9414-7.7891 3.8789-15.836 4.8047-24.258 0.011719-0.13281 0.039063-0.27344 0.042969-0.41016 0.11328-1.0586 0.26953-2.1055 0.34766-3.1758 1.0977-16.27-5.7383-26.773-12.359-36.941-1.6914-2.5938-3.4258-5.2539-5.0664-8.0938-8.3594-14.527-11.535-35.273-7.5547-49.336 4.5547-16.117 13.719-31.898 27.238-46.891 4.9062-5.4219 11.535-10.629 18.555-16.156 7.8672-6.1875 16.012-12.594 22.172-19.777 10.879-12.652 25.008-32.148 22.055-55.344-0.26172-2.082-0.59375-4.168-0.92578-6.25-0.81641-5.1797-1.5977-10.07-1.2148-14.621 0.60937-7.2227 4.6484-13.215 9.8906-18.984-0.82812 8.9023 0.78516 17.414 2.3516 25.738 0.35938 1.8984 0.72266 3.8125 1.0625 5.7773 0.035156 0.20312 5.6094 20.453 16.699 21.707 4.543 0.46484 8.7148-2.1016 10.652-6.668 1.7578-4.1953 2.9844-8.1641 4.168-12.012 2.1328-6.9258 3.9766-12.918 8.4727-18.066 1.0469-1.1992 2.5547-3.1523 4.3281-5.4805 0.87891-1.1484 1.8125-2.375 2.7891-3.6172-0.33984 14.879 6.7188 29.348 18.949 38.793 0.83984 0.64844 1.668 1.3203 2.4688 2.043 0.050781 0.042968 0.11328 0.074218 0.16406 0.11719 0.19531 0.16797 0.41406 0.30859 0.62891 0.46094 0.25391 0.17969 0.5 0.36328 0.76172 0.50781 0.16797 0.09375 0.35156 0.16406 0.53125 0.24609 0.33594 0.15625 0.67188 0.30859 1.0234 0.42188 0.042968 0.011719 0.085937 0.039062 0.125 0.050781 0.14062 0.039063 0.27344 0.042969 0.41406 0.078125 0.35938 0.085938 0.71875 0.16797 1.0859 0.20312 0.19531 0.023438 0.39062 0.015625 0.59375 0.023438 0.34766 0.011719 0.69531 0.015625 1.043-0.015625 0.19531-0.015625 0.38672-0.054688 0.57813-0.089844 0.34766-0.054688 0.68359-0.11719 1.0234-0.21875 0.17969-0.050781 0.34766-0.125 0.51953-0.18359 0.33203-0.125 0.66016-0.25391 0.98047-0.41406 0.17188-0.089844 0.33594-0.19531 0.50391-0.30078 0.28516-0.17187 0.57031-0.35156 0.83984-0.56641 0.19531-0.15234 0.36328-0.32422 0.54297-0.5 0.16797-0.15625 0.35156-0.29297 0.50781-0.46484 0.027344-0.035156 0.035156-0.078124 0.066406-0.11328 0.64453-0.73438 1.1484-1.5977 1.5078-2.5547 0.042969-0.11719 0.10156-0.22266 0.14062-0.34766 0.027344-0.078126 0.066406-0.14453 0.089844-0.22266 1.6641-5.582 4.3125-11.672 7.1562-16.391 3.7734 13.914 10.949 34.07 22.746 44.766 11.867 10.758 23.812 20.828 26.422 23.004 6.1133 6.957 14.035 13.184 21.695 19.203 7.0391 5.5312 13.691 10.762 18.586 16.172 5.8906 6.5625 10.91 13.273 15.121 20.082 0.19531 0.34766 0.38672 0.69531 0.62109 1.0078 5.1367 8.4766 9.0039 17.121 11.473 25.855 4.0195 14.055 0.84375 34.781-7.5547 49.293-1.6406 2.8516-3.375 5.5-5.0586 8.0859-6.6211 10.176-13.469 20.699-12.32 36.98 0.09375 1.3945 0.29297 2.75 0.44922 4.1211 0.003907 0.52734 0.066407 1.0547 0.17188 1.5859 1.0039 7.6758 2.793 15.047 4.5742 22.211 2.3672 9.5195 4.6016 18.512 4.8594 27.676 0.28906 10.707-2.1992 20.539-6.8242 27.035zm64.703-116.45c-5.6719 9.2617-28.223 19.492-50.953 26.695 0.76562-6.1875 3.4336-11.246 7.0859-17 8.9258-0.19141 18.199-3.6562 26.27-10.012 10.348-8.1484 16.941-19.762 17.633-31.07 0.64453-10.5-3.1484-21.203-10.406-29.371-5.1914-5.8398-11.691-9.793-18.742-11.543-1.707-4.7812-3.7734-9.5273-6.1641-14.219 7.2695-1.25 16.613-0.875 25.207 4.582 8.8828 5.6719 15.566 13.223 21.43 33.285 4.9414 16.965-0.96484 31.715-11.359 48.652z"/>
        <path d="m346.46 327.49c0.24609 0.11719 0.50391 0.17187 0.75781 0.26172 0.17188 0.0625 0.33594 0.13281 0.51562 0.17969 0.58203 0.15234 1.1641 0.24609 1.7461 0.24609h0.003906 0.003906c0.58203 0 1.1719-0.09375 1.7461-0.24609 0.17969-0.042969 0.33984-0.11719 0.51562-0.17969 0.25391-0.089844 0.50781-0.14453 0.75781-0.26172l12.902-6.1875c3.4883-1.6758 4.957-5.8516 3.2812-9.3398-1.668-3.4727-5.8398-4.9609-9.3359-3.2812l-9.8789 4.7383-9.8789-4.7383c-3.4883-1.6875-7.668-0.19531-9.3359 3.2812-1.6758 3.4883-0.20312 7.668 3.2812 9.3398z"/>
        <path d="m274.39 390.49c-11.055-28.156-7.875-69.727-7.8398-70.141 0.22266-2.7656-1.2227-5.4102-3.6641-6.7266-0.22266-0.11719-22.395-12.332-28.469-33.875-3.4141-12.105-1.1367-25.188 6.7773-38.863 18.156-31.281 53.219-37.121 93.781-15.641 9.1016 4.8203 19.969 4.8086 29.07-0.003906 28.566-15.133 54.953-16.879 74.297-4.9062 3.293 2.0234 7.5977 1.0234 9.6367-2.2734 2.0312-3.2891 1.0195-7.5977-2.2695-9.6367-23.75-14.684-55.082-13.105-88.219 4.4453-4.9961 2.6484-10.965 2.6562-15.965 0.003906-47.309-25.066-90.395-17.012-112.45 20.996-9.9102 17.129-12.641 33.887-8.1016 49.812 6.0664 21.293 23.457 34.73 31.355 39.895-0.57031 12.023-1.1133 46.195 9.0273 72.039 1.082 2.7539 3.7227 4.4414 6.5195 4.4414 0.85156 0 1.7148-0.15234 2.5547-0.48828 3.5977-1.4102 5.3672-5.4766 3.957-9.0781z"/>
        <path d="m469.89 233.87c-2.5469-4.3867-5.4414-8.4688-8.6133-12.113-2.5352-2.9297-6.9648-3.2305-9.8711-0.69922-2.918 2.5352-3.2305 6.957-0.69922 9.8789 2.5859 2.9844 4.9688 6.332 7.0664 9.9531 7.918 13.68 10.199 26.762 6.7812 38.871-6.082 21.543-28.246 33.75-28.461 33.863-2.4531 1.3164-3.8984 3.9609-3.6719 6.7383 0.039062 0.5 3.8477 50.012-11.188 77.477-8.3906 15.27-29.859 31.012-60.453 44.34-7.1836 3.1289-15.422 3.1367-22.613-0.015625-18.105-7.9141-42.453-20.797-55.586-37.219-2.4062-3.0312-6.8164-3.5039-9.8398-1.0977-3.0195 2.418-3.5039 6.8203-1.0938 9.8398 14.918 18.66 41.355 32.766 60.91 41.312 5.375 2.3516 11.156 3.5273 16.93 3.5273 5.7578 0 11.52-1.1719 16.883-3.5039 23.645-10.297 54.48-27.406 67.137-50.445 14.387-26.285 13.77-67.512 13.133-80.988 7.8906-5.168 25.289-18.602 31.355-39.895 4.5312-15.938 1.8047-32.695-8.1055-49.824z"/>
        <path d="m428.69 271c0 10.977-8.8984 19.875-19.875 19.875-10.977 0-19.875-8.8984-19.875-19.875s8.8984-19.875 19.875-19.875c10.977 0 19.875 8.8984 19.875 19.875"/>
        <path d="m305.65 376.34c14.133 4.9844 28.992 7.4688 43.844 7.4688 14.852 0 29.707-2.4883 43.844-7.4688 3.6445-1.2812 5.5625-5.2812 4.2773-8.9258-1.2891-3.6445-5.2734-5.5781-8.9336-4.2773-25.273 8.9023-53.105 8.9023-78.379 0-3.6641-1.3047-7.6445 0.62891-8.9336 4.2773-1.2812 3.6445 0.63672 7.6406 4.2812 8.9258z"/>
        <path d="m350.95 196.72c0.58984 4.1992 4.1875 7.2344 8.3047 7.2344 0.38672 0 0.78516-0.027344 1.1758-0.085937 4.5938-0.64453 7.7969-4.8906 7.1523-9.4805l-1.3594-9.7031c-0.64453-4.5938-4.8828-7.7891-9.4883-7.1523-4.5938 0.64453-7.7969 4.8906-7.1523 9.4805z"/>
        <path d="m374.08 189.19c0.58984 4.1992 4.1875 7.2344 8.3047 7.2344 0.38672 0 0.78516-0.027343 1.1758-0.085937 4.5938-0.64453 7.7969-4.8906 7.1523-9.4805l-1.3594-9.7031c-0.64453-4.5938-4.8711-7.7891-9.4883-7.1523-4.5938 0.64453-7.7969 4.8906-7.1523 9.4805z"/>
        <path d="m397.9 185.9c0.58984 4.1953 4.1875 7.2305 8.3047 7.2305 0.38672 0 0.78516-0.027344 1.1758-0.085937 4.5938-0.64453 7.7969-4.8906 7.1523-9.4883l-1.3594-9.6992c-0.64453-4.5938-4.8672-7.7969-9.4883-7.1445-4.5938 0.64453-7.7969 4.8906-7.1523 9.4883z"/>
    </g>
</svg>
