<?xml version="1.0" encoding="UTF-8"?>
<svg width="700pt" height="700pt" version="1.1" viewBox="50 0 600 550"
    xmlns="http://www.w3.org/2000/svg">
    <g>
        <path d="m113.75 157.5c-4.832 0-8.75 3.918-8.75 8.75 0 135.2 109.79 245 245 245s245-109.8 245-245c0-4.832-3.918-8.75-8.75-8.75h-238.64c-3.1289-0.003906-6.0234 1.6641-7.5859 4.375-1.5625 2.7031-4.4023 4.3555-7.5195 4.375-3.1367 0-5.9844-1.6641-7.5547-4.375-1.5664-2.7109-4.457-4.3789-7.5859-4.375h-38.898c-3.707 0.007812-7.0078 2.3477-8.2383 5.8438-2.4805 7.0117-9.0352 11.645-16.477 11.656-7.4375-0.011719-13.996-4.6445-16.477-11.656-1.2305-3.4961-4.5312-5.8398-8.2383-5.8438zm8.8867 17.5 101 0.17578c5.5977 10.531 17.875 17.348 30.113 17.363 12.242-0.015624 23.867-6.418 30.215-17.5l29.359 0.21094c3.4883 3.8164 9.3164 8.5391 19.176 8.5469 8.4297 0 15.066-3.8008 19.449-8.75h225.41c-4.6914 121.59-104.61 218.82-227.36 218.82-129.66-0.33203-222.68-104.29-227.36-218.75z"/>
        <path d="m157.36 157.5c-2.3203 0.035156-4.5312 0.99219-6.1484 2.6602-1.6133 1.6641-2.5 3.9062-2.4648 6.2266 0 55.488 22.551 105.84 58.961 142.22 1.6289 1.6875 3.8711 2.6523 6.2188 2.6719 2.3477 0.023438 4.6055-0.90234 6.2656-2.5625 1.6602-1.6602 2.582-3.918 2.5625-6.2656-0.023437-2.3477-0.98437-4.5898-2.6758-6.2188-33.262-33.242-53.832-79.09-53.832-129.85 0.035156-2.3672-0.88672-4.6484-2.5625-6.3242s-3.957-2.5977-6.3242-2.5625zm385 0c-2.3203 0.035156-4.5312 0.99219-6.1484 2.6602-1.6133 1.6641-2.5 3.9062-2.4648 6.2266 0 101.52-82.16 183.61-183.75 183.61-25.398 0-49.562-5.1328-71.539-14.422-10.988-4.6445-21.43-10.316-31.207-16.918l0.003906-0.003906c-1.918-1.4336-4.3438-2.0195-6.7031-1.6211-2.3633 0.39844-4.457 1.75-5.7969 3.7344-1.3398 1.9844-1.8086 4.4336-1.293 6.7734 0.51562 2.3398 1.9648 4.3672 4.0156 5.6055 10.707 7.2266 22.137 13.469 34.18 18.559 24.082 10.18 50.578 15.789 78.34 15.789 111.04 0 201.25-90.137 201.25-201.11v0.003907c0.035156-2.3672-0.88672-4.6484-2.5625-6.3242s-3.957-2.5977-6.3242-2.5625z"/>
        <path d="m349.86 271.25c-2.3203 0.035156-4.5312 0.99219-6.1484 2.6602-1.6133 1.6641-2.5 3.9062-2.4648 6.2266v17.262c-0.03125 2.3438 0.875 4.6016 2.5195 6.2695s3.8867 2.6055 6.2305 2.6055 4.5859-0.9375 6.2305-2.6055 2.5508-3.9258 2.5195-6.2695v-17.262c0.035156-2.3672-0.88672-4.6484-2.5625-6.3242s-3.957-2.5977-6.3242-2.5625z" fill-rule="evenodd"/>
        <path d="m406.54 256c-3.0898 0.11719-5.8828 1.8555-7.3555 4.5703-1.4727 2.7148-1.4062 6.0039 0.17578 8.6562l8.6484 14.969v0.003906c1.1094 2.1055 3.0273 3.668 5.3164 4.3281 2.2852 0.66406 4.7422 0.36328 6.8047-0.82812s3.5469-3.1719 4.1172-5.4844c0.57031-2.3086 0.17578-4.7539-1.0977-6.7656l-8.6133-14.969v-0.003906c-1.6094-2.8789-4.6992-4.6094-7.9961-4.4766z" fill-rule="evenodd"/>
        <path d="m448.85 214.38c-4.0625-0.18359-7.7148 2.457-8.8164 6.3711-1.0977 3.9141 0.64062 8.0703 4.2031 10.035l14.969 8.6133c2.0117 1.2734 4.457 1.6719 6.7734 1.1016 2.3125-0.57031 4.293-2.0547 5.4844-4.1172 1.1914-2.0625 1.4922-4.5234 0.83203-6.8125-0.66406-2.2891-2.2305-4.207-4.3398-5.3164l-14.969-8.6484c-1.2539-0.74609-2.6758-1.168-4.1367-1.2227z" fill-rule="evenodd"/>
        <path d="m251.77 214.38c-1.6719-0.054688-3.3203 0.37109-4.7539 1.2227l-14.938 8.6484h0.003906c-2.1094 1.1094-3.6758 3.0273-4.3398 5.3164-0.66016 2.2891-0.36328 4.7461 0.83203 6.8086 1.1914 2.0625 3.1719 3.5508 5.4844 4.1211 2.3125 0.56641 4.7578 0.16797 6.7734-1.1055l14.938-8.6133h-0.003906c3.457-1.9102 5.2031-5.8945 4.2695-9.7305-0.93359-3.8359-4.3203-6.5703-8.2656-6.6758z" fill-rule="evenodd"/>
        <path d="m293.2 256c-3.1914-0.019531-6.1367 1.6953-7.6914 4.4766l-8.6484 14.969v0.003906c-1.1602 2.0117-1.4727 4.4023-0.87109 6.6445 0.60156 2.2461 2.0703 4.1562 4.082 5.3164 2.0156 1.1602 4.4062 1.4727 6.6484 0.87109 2.2422-0.60156 4.1562-2.0703 5.3164-4.082l8.6133-14.969v-0.003906c1.6055-2.6914 1.6445-6.0391 0.10547-8.7695-1.5391-2.7344-4.4219-4.4336-7.5547-4.457z" fill-rule="evenodd"/>
    </g>
</svg>
