<?xml version="1.0" encoding="UTF-8"?>
<svg width="700pt" height="700pt" version="1.1" viewBox="50 0 600 550"
    xmlns="http://www.w3.org/2000/svg"
    xmlns:xlink="http://www.w3.org/1999/xlink">
    <g>
        <path d="m532.59 279.24c-2.3633-3.7305-6.6641-10.473-12.926-17.969l13.574-38.207c0.8125-2.2891 0.55469-4.6797-0.48828-6.6797-3.4727-8.3398-7.2969-16.57-11.004-24.527-1.8125-3.8906-3.6289-7.7891-5.4102-11.703-5.125-11.277-14.746-19.953-26.398-23.789-18.363-6.0703-51.891-14.297-70.004-1.1602-1.9805 1.4336-4.0898 3.3828-5.9883 5.9297-10.836-16.98-24.516-34.328-41.887-50.707-23.969-22.586-51.531-41.512-81.93-56.258-37.918-18.395-72.105-27.16-101.65-26.078-12.777 0.46875-23.082 3.0195-31.484 7.8008-15.719 8.9375-23.105 25.391-18.82 41.91 2.9336 11.352 11.004 21.84 22.727 29.523 10.008 6.5703 21.18 10.375 31.039 13.738 47.18 16.078 82.699 47.516 105.73 93.391-24.102 6.4336-60.258 21.262-87.91 55.105-53.832 65.891-33.207 149.26-28.527 165.31 1.1523 3.9609 2.4062 7.707 3.5508 10.898 2.5195 7.0273 9.2305 11.75 16.695 11.75 9.0391 0 16.613-6.8086 17.617-15.824 2.2578-20.07 10.719-58.793 42.051-92.656 18.465-19.957 39.176-32.172 57.77-39.699-0.054687 49.453-16.223 99.004-46.211 140.76-1.875 2.6875-4.2617 5.4141-7.4766 8.5391l-37.004 35.594c-1.6758 1.6055-2.6055 3.8398-2.5742 6.1602 0.027344 2.3203 1.0195 4.5312 2.7266 6.0938 27.887 25.512 29.531 25.512 33.137 25.512 4.2969 0 4.957 0 38.797-33.078 11.094-10.801 24.84-19.875 40.879-26.977 15.496-6.9141 29.617-15.844 41.961-26.523 43.02-37.051 55.859-86.289 59.652-115.36 5.8398 4.4922 11.555 9.5156 16.973 15.242 29.008 30.648 36.914 67.828 42.145 92.434 3.9883 18.75 6.6211 31.137 17.898 32.512 0.68359 0.085938 1.3477 0.11719 2.0039 0.11719 13.898 0 22.379-18.027 28.078-30.141l0.32031-0.67188c21.816-46.387 15.102-109-17.121-159.52zm-50.18-47.316c3.8203-1.5 7.8633-2.7617 12.168-3.6055 4.918-0.97266 9.918-1.4844 14.945-1.3906 1.5117 0.015624 2.9609 0.16406 4.4297 0.26953l-7.3203 20.598c-6.7891-6-14.852-11.652-24.223-15.871zm-52.609-63.113c8.5508-6.1875 29.578-4.8555 54.879 3.5117 7.2109 2.3789 13.184 7.7656 16.363 14.785 1.8047 3.9648 3.6406 7.9141 5.4805 11.855 1.7266 3.6914 3.4648 7.4375 5.1875 11.211-0.66016-0.023437-1.3281-0.035156-1.9922-0.042969-6.1562-0.023437-12.336 0.51563-18.379 1.707-6.2656 1.2305-12.234 3.0703-17.723 5.4609-4.4961 1.9609-8.3438 4.8984-11.781 7.6328-6.0977-1.4453-11.168-1.7812-18.25-1.5742-1.6289-4.9102-3.5391-10.129-5.6992-15.547 1.8047-3.207 5.4102-8.1367 11.258-9.4805 1.0117-0.23438 2.0664-0.35156 3.1406-0.35156 0.027344-0.003907 0.050782 0 0.078125 0 3.8516 0 6.9844-3.1211 7-6.9727 0.015625-3.8633-3.1094-7.0117-6.9727-7.0273h-0.10547c-2.1406 0-4.2617 0.24219-6.293 0.71875-6.2656 1.4375-10.949 4.8086-14.449 8.4453-2.0547-4.4141-4.2852-8.9023-6.7266-13.48 0.35156-6.6445 2.957-9.3867 4.9844-10.852zm-232.44-63.648c-8.9141-3.0352-19.02-6.4805-27.242-11.879-8.2227-5.3945-13.789-12.383-15.676-19.691-2.8164-10.875 3.7617-19.062 10.859-23.105 5.9961-3.4062 13.781-5.2461 23.801-5.6094 26.645-1.0078 58.273 7.2227 93.703 24.406 28.852 13.996 55.008 31.953 77.727 53.367 37.289 35.152 56.672 75.137 66.641 104.68-10.395 4.9375-22.625 12.684-36.559 23.211-14.766 11.16-25.16 20.16-32.172 27.844l-25.211-19.906c-2.2109-1.7539-3.7617-4.2344-4.4961-7.1836-2.9062-11.828-6.7422-23.297-11.223-33.699-0.12891-0.37891-0.27344-0.74609-0.45312-1.0977-0.58984-1.5469-1.2031-3.1289-1.9258-4.6523-24.93-52.652-64.555-88.543-117.77-106.68zm51.453 232.46c-34.586 37.387-43.922 80.07-46.406 102.2-0.09375 0.95703-1.5 1.1094-1.8047 0.28125-1.0469-2.918-2.1914-6.3242-3.2383-9.9297-2.6211-8.9727-24.129-89.348 25.402-149.97 25.703-31.449 59.809-44.637 81.555-50.098 2.8906 7.4375 5.4492 15.109 7.4922 23.039-4.3281 0.71875-8.6289 1.5664-12.84 2.7148-3.7305 1.0117-5.9375 4.8594-4.918 8.5898 0.84375 3.1211 3.668 5.1641 6.7461 5.1641 0.60547 0 1.2266-0.078125 1.8438-0.24609 4.957-1.3438 10.059-2.2734 15.18-2.9531 1.4727 1.9414 3.1016 3.7578 5 5.2578l17.012 13.43c-4.5078 1.0703-9.3242 2.3984-14.391 4.0273-0.73437 0.14062-1.4453 0.34766-2.0938 0.67188-23.008 7.7109-50.496 21.84-74.539 47.828zm123.36 95.07c-11.109 9.6133-23.844 17.656-37.812 23.902-17.848 7.8945-33.246 18.09-45.785 30.297-15.52 15.172-23.402 22.562-27.371 26.164-3.6797-3.0508-9.2305-7.9141-14.844-12.953l30.555-29.391c4.0312-3.9219 7.0742-7.4219 9.5078-10.91 33.141-46.145 50.457-101.38 49.207-156.25 7.1836-2.0703 13.688-3.4492 19.246-4.3633 1.5469 10.371 2.1328 20.895 1.625 31.375-0.19141 3.8594 2.7891 7.1406 6.6523 7.332 0.11719 0.011718 0.23047 0.011718 0.34766 0.011718 3.707 0 6.8047-2.918 6.9844-6.6602 0.54297-11.145-0.050781-22.332-1.6406-33.371 15.059 2.8281 36.695 8.8477 58.23 21.547-2 24.316-11.48 75.875-54.902 113.27zm162.84-0.28906-0.32031 0.67578c-5.1289 10.91-9.1094 17.535-11.648 19.734-1.5469-3.7617-3.2695-11.848-4.6992-18.574-5.2773-24.84-14.121-66.406-46.375-100.48-30.441-32.156-68.516-45.562-93.961-51.156 5.8398-5.3828 13.34-11.547 22.742-18.652 3.168-2.3984 6.2266-4.6016 9.2188-6.6992 5.5 0.67578 15.383 2.7227 23.262 8.8203 1.2773 0.99219 2.7812 1.4688 4.2852 1.4688 2.0898 0 4.1602-0.92969 5.5391-2.7109 2.3672-3.0586 1.8086-7.4531-1.25-9.8242-4.9727-3.8516-10.383-6.4609-15.477-8.2539 4.7891-2.7383 9.1445-4.8906 13.02-6.418 8.9141-0.45313 13.371-0.46094 19.957 1.2617 1.1797 0.67188 2.4883 1.0586 3.8242 1.1094 2.1797 0.6875 4.5547 1.4844 7.4648 2.5312 26.621 9.5703 42.57 34.73 47.812 43.008l0.53125 0.83594c22.168 34.754 39.684 93.152 16.074 143.33z"/>
        <path d="m362.12 346.6c-3.8125-0.69922-7.4609 1.793-8.1719 5.5898-0.49219 2.625-1.0586 5.2852-1.7188 8.0039-5.2812 21.875-15.395 42.84-29.262 60.648-2.375 3.0469-1.8242 7.4492 1.2266 9.8242 1.2773 0.99609 2.7891 1.4766 4.2969 1.4766 2.082 0 4.1484-0.92969 5.5273-2.6992 15.07-19.359 26.074-42.168 31.82-65.957 0.71094-2.9453 1.332-5.8516 1.8711-8.707 0.71094-3.8125-1.7891-7.4688-5.5898-8.1797z"/>
        <path d="m334.14 227c0.88672 3.0703 3.6836 5.0586 6.7188 5.0586 0.64453 0 1.3008-0.089844 1.9492-0.27344 3.7188-1.0742 5.8594-4.957 4.7812-8.668-2.3203-8.0117-4.6211-15.164-9.3789-21.559-2.3203-3.1016-6.6914-3.7461-9.8008-1.4336-3.1016 2.3125-3.7422 6.6992-1.4336 9.8008 3.3711 4.5195 5.168 10.164 7.1641 17.074z"/>
        <path d="m332.84 136.67c0.074218 0.039063 6.8203 3.8906 12.777 12.734 1.3477 2.0039 3.5625 3.0898 5.8086 3.0898 1.3438 0 2.7031-0.38672 3.9023-1.1992 3.207-2.1602 4.0586-6.5078 1.8945-9.7109-7.9805-11.84-17.258-16.973-17.645-17.188-3.375-1.8438-7.582-0.59375-9.4531 2.7656-1.8672 3.3789-0.64062 7.6211 2.7148 9.5078z"/>
        <path d="m260.28 102.46c-8.7461-5.75-10.309-6.418-15.508-8.2695-1.2656-0.44922-2.8047-1.0039-4.8711-1.793-3.6055-1.4102-7.6562 0.39844-9.043 4.0156-1.3945 3.6055 0.40234 7.6562 4.0156 9.043 2.207 0.85156 3.8477 1.4375 5.1953 1.9219 4.0977 1.4688 4.8438 1.7305 12.512 6.7773 1.1875 0.78516 2.5195 1.1523 3.8477 1.1523 2.2734 0 4.5078-1.1094 5.8516-3.1523 2.1211-3.2344 1.2266-7.5742-2-9.6953z"/>
        <path d="m276.34 264.41c-7.9141 3.9297-15.359 8.7188-22.141 14.23-2.9961 2.4414-3.4492 6.8477-1.0117 9.8516 1.3828 1.7031 3.3984 2.582 5.4375 2.582 1.5508 0 3.1133-0.51562 4.4141-1.5664 5.9688-4.8555 12.543-9.0781 19.527-12.543 3.4609-1.7266 4.8789-5.9258 3.1602-9.3867-1.7227-3.4688-5.9141-4.8789-9.3867-3.168z"/>
    </g>
</svg>
