<?xml version="1.0" encoding="UTF-8"?>
<svg width="700pt" height="700pt" version="1.1" viewBox="50 0 600 550"
    xmlns="http://www.w3.org/2000/svg"
    xmlns:xlink="http://www.w3.org/1999/xlink">
    <g>
        <path d="m585.8 114.7c-2.6875-9.1836-5.2344-17.852-9.1445-28.477-2.7109-7.3516-9.5195-12.387-17.359-12.828l-14.48-0.80078c-0.61719-0.023438-1.2383 0-1.8555 0.10547-7.7383 1.293-13.691 7.3984-14.816 15.188l-1.1523 8.2383c-2.0625 14.992-4.0078 29.141-9.2969 44.309-25.207 72.309-65.32 129.18-119.22 169.03-53.395 39.473-117.89 61.066-191.7 64.191-28.262 1.2422-56.145-3.9297-82.578-15.109-4.2383-1.7812-9.1406 0.16406-10.977 4.3945l-14.527 33.48c-1.8438 4.2383 0.089844 9.168 4.3164 11.031l15.164 6.6797c12.945 5.707 26.488 13.184 41.41 22.863 50.82 32.988 109.21 50.43 168.85 50.43 75.578 0 147.43-28.973 197.14-79.488 70.168-71.309 94.359-179.91 63.129-283.41-1.0391-3.4648-1.9844-6.7031-2.9023-9.832zm-72.195 281.45c-46.562 47.324-114.05 74.469-185.16 74.469-56.391 0-111.62-16.496-159.71-47.719-15.688-10.18-30.004-18.082-43.781-24.152l-7.5234-3.3125 7.9531-18.324c26.414 9.9844 54.074 14.527 82.102 13.328 77.219-3.2695 144.83-25.973 200.97-67.473 56.672-41.895 98.762-101.45 125.1-177 5.8359-16.742 7.8945-31.707 10.074-47.543l1.1367-8.1328c0.050781-0.35156 0.24219-0.64844 0.51953-0.82812l13.07 0.72266c1.125 0.0625 2.1445 0.8125 2.5312 1.8594 3.7188 10.086 6.0664 18.105 8.7852 27.395 0.92969 3.1641 1.8867 6.4453 2.9453 9.957 29.461 97.605 6.8477 199.82-59.012 266.76z"/>
        <path d="m326.55 419.56c-35.441 5.0742-72.289 1.8438-115.97-10.164-3.7227-1.0117-7.582 1.1719-8.6055 4.8945-1.0234 3.7227 1.1641 7.582 4.8945 8.6016 31.684 8.7188 60.016 12.988 86.906 12.988 11.816 0 23.348-0.82422 34.766-2.457 3.832-0.54688 6.4844-4.0938 5.9375-7.9258-0.55469-3.8281-4.1016-6.4766-7.9297-5.9375z"/>
        <path d="m518.52 293.14c-3.3164-1.9805-7.6094-0.90625-9.6055 2.4062-20.156 33.633-47.305 61.836-80.691 83.82-24.613 16.211-48.797 27.457-73.961 34.406-3.7305 1.0312-5.9141 4.8828-4.8906 8.6133 0.85547 3.1016 3.6719 5.1367 6.7461 5.1367 0.61719 0 1.2422-0.085937 1.8633-0.25391 26.594-7.3398 52.078-19.188 77.934-36.211 35.156-23.152 63.758-52.859 85.004-88.316 1.9922-3.3125 0.91797-7.6172-2.3984-9.6016z"/>
        <path d="m554.28 167.28c-3.9492-0.17969-7.1562 2.7539-7.3633 6.6133-0.80078 14.93-4.8828 54.359-25.434 98.062-1.6406 3.5-0.14062 7.668 3.3555 9.3125 0.96484 0.45312 1.9766 0.66797 2.9727 0.66797 2.625 0 5.1445-1.4883 6.3398-4.0195 20.828-44.285 25.691-83.707 26.738-103.27 0.21094-3.8633-2.75-7.1602-6.6094-7.3711z"/>
    </g>
</svg>
