<?xml version="1.0" encoding="UTF-8"?>
<svg width="700pt" height="700pt" version="1.1" viewBox="50 0 600 550"
    xmlns="http://www.w3.org/2000/svg"
    xmlns:xlink="http://www.w3.org/1999/xlink">
    <g>
        <path d="m304.51 230.56c0 8.1367-6.5977 14.734-14.734 14.734-8.1367 0-14.734-6.5977-14.734-14.734 0-8.1367 6.5977-14.734 14.734-14.734 8.1367 0 14.734 6.5977 14.734 14.734"/>
        <path d="m429.09 230.56c0 8.1367-6.5977 14.734-14.734 14.734s-14.73-6.5977-14.73-14.734c0-8.1367 6.5938-14.734 14.73-14.734s14.734 6.5977 14.734 14.734"/>
        <path d="m366.29 368.39c2.1523 0 4.3008-0.81641 5.9414-2.457l9.9805-9.9727c3.2812-3.2812 3.2812-8.5977 0.003907-11.879-3.2773-3.2891-8.5977-3.2891-11.879-0.011719l-9.9844 9.9844c-3.2812 3.2812-3.2812 8.5977 0 11.879 1.6406 1.6406 3.7852 2.457 5.9375 2.457z"/>
        <path d="m331.91 365.93c1.6406 1.6406 3.793 2.457 5.9414 2.457 2.1523 0 4.3008-0.81641 5.9375-2.4531 3.2812-3.2812 3.2812-8.6016 0.003907-11.883l-9.9844-9.9805c-3.2812-3.2812-8.5977-3.2812-11.879 0s-3.2812 8.5977 0 11.879z"/>
        <path d="m143.97 214.13c-1.5391-4.3672-6.3164-6.6641-10.711-5.1367-4.375 1.5391-6.6758 6.3398-5.1367 10.711l8.668 24.633c1.2148 3.4492 4.457 5.6094 7.9258 5.6094 0.92578 0 1.8633-0.15234 2.7891-0.47656 4.375-1.5391 6.6758-6.3398 5.1367-10.711z"/>
        <path d="m552.77 172.67c-5.5039-0.48828-10.953 0.10156-16.301 1.6172-2.2773-12.789-5.9961-25.543-12.527-39.742-26.277-57.125-108.36-87.906-172.77-84.711-64.398-3.2188-146.51 27.578-172.78 84.711-5.8398 12.699-9.3906 24.238-11.723 35.676-5.8516-1.8047-11.82-2.4766-17.809-1.9258-18.289 1.5625-35.133 11.473-43.98 25.848-8.1211 13.211-9.043 29.305-2.5977 45.32 12.828 31.848 28.066 61.426 52.406 64.754-1.8867 10.148-4.4414 22.305-7.2305 31.707-1.8633 6.2773-0.89062 13.043 2.6719 18.547 3.668 5.6797 9.6562 9.4531 16.426 10.367 34.289 4.625 63.371 21.508 94.215 54.684-1.5859 15.664 0.78906 28.426 7.3086 38.578 11.043 17.074 44.953 36.266 71.449 49.359 3.8984 1.9219 8.2422 2.9297 12.57 2.9297 4.3398 0 8.6953-1.0195 12.602-2.9531 38.555-19.113 62.574-35.711 71.406-49.359 6.707-10.445 9.043-23.738 7.1016-40.273 30.238-32.02 58.902-48.418 92.578-52.965 6.7656-0.91406 12.75-4.6875 16.426-10.367 3.5625-5.5 4.5352-12.266 2.6719-18.547-2.7891-9.3906-5.3477-21.582-7.2344-31.758 23.301-3.5508 37.922-31.953 50.227-62.508 6.25-15.52 5.3555-31.125-2.5273-43.938-8.5781-13.938-24.902-23.535-42.574-25.051zm-434.9 60.52c-4.4727-11.098-4.0156-21.559 1.3203-30.238 6.1055-9.9297 18.02-16.793 31.148-17.914 4.6016-0.4375 9.1914 0.32422 13.703 2.0938-0.42188 3.7422-0.78906 7.5156-1.0742 11.387-0.85156 11.555-1.2812 23.238-1.707 34.559-0.64453 17.293-1.3086 35.172-3.4844 52.461-0.0625 0.50391-0.16406 1.2266-0.28516 2.0391-16.398-1.9492-29.75-29.867-39.621-54.387zm304.11 215.78c-6.8477 10.59-30.445 26.41-64.746 43.41-3.1875 1.5742-7.0898 1.5664-10.27 0.003906-34.277-16.934-57.887-32.766-64.77-43.395-6.3789-9.9297-6.8203-25.328-1.3086-45.82 9.4414-35.762 16.559-65.852 15.305-100.22-0.35938-10.863-6.5898-20.82-16.273-25.977-2.543-1.3438-5.1406-2.6641-7.7578-3.9883-11.367-5.75-22.102-11.184-29.457-19.98-7-8.3438-9.4688-19.719-6.957-32.043 3.0859-15.109 13.043-28.578 25.977-35.133 9.3633-4.7539 18.801-7.1562 28.043-7.1562 23.84 0 43.688 16.016 56.141 29.461 3.1758 3.4336 9.1406 3.4336 12.324 0 16.676-18.004 38.348-28.75 57.973-28.75 9 0 17.812 2.168 26.195 6.4414 12.957 6.6016 22.922 20.098 25.996 35.219 2.4961 12.285 0.027343 23.645-6.9727 31.977-7.3398 8.7852-18.082 14.223-29.449 19.977-2.6094 1.3164-5.207 2.6367-7.7266 3.9766-9.6836 5.1055-15.926 15.062-16.285 25.957-1.2617 34.406 5.8633 64.488 15.305 100.25 5.5352 20.852 5.1094 35.84-1.2852 45.789zm116.11-103.62c-1.0039 1.5469-2.6641 2.582-4.5625 2.8398-34.602 4.6641-64.152 20.172-94.289 49.668-8.9375-33.93-15.645-62.539-14.488-94.336 0.16406-4.9766 2.9102-9.3477 7.3516-11.691 2.4453-1.293 4.9453-2.5664 7.4609-3.8359 12.387-6.2656 25.199-12.746 34.746-24.18 10.344-12.324 14.09-28.699 10.551-46.105-4.0703-20.02-17.414-37.969-34.828-46.844-10.77-5.4805-22.152-8.2695-33.828-8.2695-28.98 0-51.742 16.453-64.074 27.91-30.391-29.203-65.172-36.309-98.004-19.652-17.398 8.832-30.75 26.746-34.836 46.762-3.5625 17.445 0.18359 33.852 10.535 46.188 9.5586 11.441 22.367 17.922 34.754 24.188 2.5156 1.2773 5.0195 2.5352 7.4531 3.8359 4.3867 2.3359 7.207 6.8164 7.3711 11.727 1.1719 32.082-5.6797 60.949-14.746 95.305-0.039063 0.15625-0.066406 0.29688-0.10547 0.44922-30.645-30.438-60.594-46.367-95.75-51.109-1.8984-0.25781-3.5625-1.2891-4.5625-2.8398-0.63672-0.99219-1.2773-2.5977-0.67188-4.6406 5.957-20.082 10.422-49.363 10.887-53.09 2.2617-18.016 2.9414-36.27 3.6016-53.93 0.41406-11.16 0.84375-22.703 1.6758-33.945 1.5117-20.496 4.3633-37.379 13.926-58.18 23.039-50.109 99.438-77.906 157.08-74.938 0.15234 0.003907 0.29297-0.027343 0.44141-0.027343 0.14062 0.003906 0.28125 0.035156 0.42188 0.027343 57.598-3.0391 134.04 24.832 157.08 74.938 9.5664 20.797 12.414 37.684 13.926 58.18 0.82812 11.246 1.2617 22.781 1.6758 33.945 0.66016 17.656 1.3398 35.914 3.6016 53.934 0.46875 3.7344 4.9492 33.078 10.887 53.082 0.60156 2.0352-0.03125 3.6445-0.67578 4.6367zm44.184-109.97c-9.3867 23.309-22.02 49.824-37.453 52.141-0.11719-0.79688-0.21094-1.5-0.28125-2-2.1719-17.289-2.832-35.168-3.4844-52.461-0.42188-11.316-0.85547-23.004-1.707-34.559-0.18359-2.4688-0.39062-4.8984-0.62891-7.3125 4.1211-1.5273 8.3203-2.1797 12.562-1.7852 12.504 1.0742 23.902 7.6328 29.73 17.121 5.0977 8.2773 5.5312 18.254 1.2617 28.855z"/>
        <path d="m567.82 211.9c-4.3906-1.5234-9.1719 0.76562-10.711 5.1367l-8.3477 23.734c-1.5391 4.375 0.76172 9.1719 5.1367 10.711 0.92578 0.32422 1.8633 0.47656 2.7891 0.47656 3.4648 0 6.707-2.1602 7.9258-5.6094l8.3477-23.734c1.5352-4.375-0.76172-9.1719-5.1406-10.715z"/>
        <path d="m391.02 415.05h-76.367c-4.6406 0-8.3984 3.7617-8.3984 8.3984s3.7578 8.3984 8.3984 8.3984h76.367c4.6406 0 8.3984-3.7617 8.3984-8.3984 0.003906-4.6367-3.7617-8.3984-8.3984-8.3984z"/>
    </g>
</svg>
