<?xml version="1.0" encoding="UTF-8"?>
<svg width="700pt" height="700pt" version="1.1" viewBox="50 0 600 550"
    xmlns="http://www.w3.org/2000/svg"
    xmlns:xlink="http://www.w3.org/1999/xlink">
    <g>
        <path d="m533.01 193.3c-4.4531 1.2812-8.8594 3.1523-13.203 5.4531-26.809-51.574-72.84-90.406-128.37-103.32-0.49219-0.11328-1.1797-0.38672-1.6445-1.043-5.6445-7.8789-13.66-18.395-19.797-23.738-13.652-11.895-43.484-25.246-44.742-25.809-3.1484-1.4062-6.8477-0.73828-9.3086 1.6875-2.457 2.418-3.1875 6.1055-1.8359 9.2773 1.793 4.2109 6.4453 17.035 6.4453 25.66 0 5.5234-6.0938 11.305-9.3477 13.789-56.297 12.777-102.81 51.93-129.63 104.17-4.1758-2.3359-9.0625-4.5977-14.609-6.1484-19.719-5.6172-41.754 0.23438-54.824 14.57-14.34 15.664-18.355 31.09-16.527 63.488 2.2188 39.312 29.617 54.812 37.953 58.621 5.0664 2.3242 10.574 3.4844 16.27 3.4844 2.8125 0 5.668-0.32031 8.5352-0.88672 2.1836 20.473 6.5703 43.512 13.59 71.445 1.5977 6.3516 7.2969 10.785 13.867 10.785 2.9844 0 5.8594-0.92578 8.293-2.6719l4.1992-3.0078 3.8242 31.008c0.33594 7.1523 6.2656 12.875 13.508 12.875 2.8789 0 5.6406-0.91406 7.9844-2.6445l5.2344-3.8516 2.1523 16.359c0.87891 6.6914 6.6523 11.742 13.418 11.742 3.6289 0 7.0781-1.4688 9.6094-4.0586 8.6055 17.488 23.906 30.941 42.301 36.812 17.645 5.6328 36.004 8.4961 54.555 8.4961 18.543 0 36.895-2.8555 54.539-8.4844 18.418-5.875 33.719-19.324 42.324-36.82 2.5312 2.5859 5.9766 4.0547 9.6055 4.0547 6.7695 0 12.539-5.0508 13.418-11.742l2.1562-16.387 5.2539 3.8516c2.3359 1.7188 5.0977 2.625 7.9648 2.625 7.2422 0 13.172-5.7188 13.508-12.875l3.8203-30.961 4.1992 3.0078c2.4453 1.7461 5.3125 2.6719 8.3008 2.6719 6.5625 0 12.266-4.4336 13.859-10.781 5.1562-20.484 10.824-45.527 13.598-71.152 2.1602 0.33984 4.4023 0.59375 6.7773 0.59375 5.0977 0 10.605-0.94531 16.199-3.4883 8.3438-3.8125 35.746-19.32 37.961-58.625 1.832-32.402-2.1836-47.828-16.516-63.477-13.082-14.332-35.121-20.211-54.867-14.559zm5.7266 56.008c0.050781 0 0.10156-0.015625 0.15234-0.015625 9.9531 0 18.043 8.1211 18.043 18.105 0 8.0078-5.2812 14.738-12.516 17.086-0.98828-11.996-2.9102-23.754-5.6797-35.176zm-381.32 35.746c-8.1797-1.707-14.348-8.9766-14.348-17.656 0-9.9844 8.0938-18.105 18.043-18.105 0.66016 0 1.2891 0.15625 1.9375 0.22266-2.7656 11.531-4.6719 23.406-5.6328 35.539zm-16.855 29.645c-6.1836-2.8281-26.48-14.375-28.172-44.297-1.7266-30.57 2.3516-40.5 12.156-51.219 8.7461-9.5938 24.289-13.598 37.852-9.7344 4.6211 1.293 8.6523 3.2656 12.047 5.2539-2.5273 6.0078-4.7812 12.176-6.7969 18.453-2.1445-0.41016-4.3242-0.67188-6.5312-0.67188-19.215 0-34.844 15.656-34.844 34.906 0 17.723 13.305 32.363 30.453 34.535 0 0.46094-0.027344 0.91797-0.027344 1.3789 0 4.0312 0.13281 8.1719 0.33594 12.375-4.8672 1.293-10.719 1.6562-16.473-0.98047zm373.91 81.621-12.691-9.0781c-2.4141-1.7266-5.5547-2.0508-8.2617-0.85547-2.7148 1.1875-4.5977 3.7227-4.9609 6.6641l-4.9844 40.387-12.117-8.8945c-2.3984-1.7578-5.543-2.1211-8.2695-0.95312-2.7344 1.1641-4.6406 3.6836-5.0273 6.6289l-3.0234 22.988-3.5859-4.3008c-1.9414-2.3281-4.9883-3.4453-7.9844-2.8789-2.9844 0.55469-5.4414 2.6758-6.418 5.5547l-1.6289 4.8008c-5.6836 16.703-18.82 29.785-35.156 34.996-32.004 10.207-66.91 10.203-98.879-0.003906-16.289-5.2031-29.41-18.246-35.105-34.895l-1.6797-4.9102c-0.98047-2.8711-3.4375-4.9883-6.4219-5.543-0.50781-0.09375-1.0195-0.14062-1.5234-0.14062-2.4648 0-4.8398 1.0859-6.4531 3.0234l-3.5859 4.3008-3.0234-22.988c-0.38672-2.9453-2.3008-5.4727-5.0352-6.6367-2.7266-1.1602-5.875-0.80078-8.2773 0.96484l-12.113 8.9219-4.9844-40.422c-0.36328-2.9414-2.2461-5.4727-4.9609-6.6641s-5.8516-0.86328-8.2656 0.85547l-12.691 9.0781c-9.582-38.77-13.867-67.574-13.867-93.012 0-3.0859 0.074219-6.1562 0.20703-9.2109 0.011719-0.15625 0.027344-0.30859 0.027344-0.46875 3.9922-89.168 62.797-165.01 142.79-182.33 1.2539-0.26953 2.3906-0.8125 3.3555-1.5586 3.3945-2.3398 17.488-12.992 17.488-28.258 0-4.1328-0.64453-8.5508-1.5625-12.762 8.5859 4.5352 17.832 9.957 23.18 14.617 3.7227 3.2422 10.141 11.031 17.164 20.848 2.7422 3.832 6.832 6.5352 11.508 7.6211 81.559 18.957 140.75 99.5 140.75 191.51-0.007812 32-7.2539 66.109-13.93 93.008zm73.148-125.91c-1.6914 29.922-21.992 41.469-28.156 44.285-5.0898 2.3086-10.242 2.25-14.617 1.3828 0.21875-4.2656 0.35156-8.5273 0.35156-12.762 0-0.55469-0.027344-1.1094-0.035156-1.6641 16.23-2.9688 28.57-17.176 28.57-34.25 0-19.246-15.629-34.906-34.844-34.906-1.6289 0-3.2305 0.15234-4.8203 0.37109-2.0898-6.4414-4.457-12.746-7.0859-18.906 3.0977-1.6953 6.6797-3.3594 10.668-4.5078 13.508-3.8594 29.059 0.14453 37.816 9.7617 9.8008 10.688 13.879 20.625 12.152 51.195z"/>
        <path d="m413.95 205c-21.688 0-44.145 9.9453-58.598 25.957-2.3477 2.5977-6.5117 2.5977-8.8594 0-14.461-16.012-36.91-25.957-58.598-25.957-39.543 0-71.707 32.168-71.707 71.703 0 34.797 25.504 64.875 59.605 70.688-4.7656 12.891-10.16 31.781-10.141 51.156 0.035156 42.758 39.883 80.266 85.27 80.266s85.23-37.508 85.27-80.266c0.015625-19.371-5.375-38.266-10.141-51.156 34.105-5.8125 59.605-35.891 59.605-70.688 0.003906-39.535-32.172-71.703-71.707-71.703zm7.9648 126.04c-4.6094 0.67188-8.6133 3.3672-10.98 7.3906-2.4141 4.0898-2.8281 8.9883-1.1406 13.441 3.5938 9.4883 9.6211 28.156 9.6055 46.66-0.027343 33.82-32.02 63.477-68.473 63.477-36.449 0-68.441-29.664-68.473-63.477-0.015625-18.504 6.0078-37.172 9.6055-46.66 1.6875-4.4453 1.2695-9.3477-1.1406-13.441-2.375-4.0273-6.3789-6.7266-10.988-7.3906-26.758-3.8867-46.938-27.242-46.938-54.332 0-30.273 24.629-54.902 54.906-54.902 17.078 0 34.758 7.8242 46.129 20.418 4.3359 4.8008 10.496 7.5547 16.902 7.5547s12.562-2.7539 16.902-7.5547c11.367-12.594 29.047-20.418 46.133-20.418 30.273 0 54.902 24.629 54.902 54.902-0.007812 27.094-20.191 50.445-46.953 54.332z"/>
        <path d="m402.41 397.3c-33.68 6.8359-69.289 6.8359-102.97 0-4.5547-0.90625-8.9805 2.0156-9.9062 6.5625-0.92578 4.5469 2.0156 8.9805 6.5625 9.9062 17.938 3.6406 36.383 5.4609 54.828 5.4609 18.445 0 36.895-1.8203 54.828-5.4609 4.5469-0.92578 7.4805-5.3594 6.5625-9.9062-0.92188-4.5469-5.3516-7.4648-9.9023-6.5625z"/>
        <path d="m340.98 355.25c0 4.9609-4.0234 8.9844-8.9844 8.9844s-8.9805-4.0234-8.9805-8.9844c0-4.9609 4.0195-8.9805 8.9805-8.9805s8.9844 4.0195 8.9844 8.9805"/>
        <path d="m378.82 355.25c0 4.9609-4.0234 8.9844-8.9844 8.9844-4.9609 0-8.9805-4.0234-8.9805-8.9844 0-4.9609 4.0195-8.9805 8.9805-8.9805 4.9609 0 8.9844 4.0195 8.9844 8.9805"/>
        <path d="m305.66 275.1c0 10.438-8.4609 18.898-18.898 18.898s-18.902-8.4609-18.902-18.898c0-10.441 8.4648-18.902 18.902-18.902s18.898 8.4609 18.898 18.902"/>
        <path d="m432.13 275.1c0 10.438-8.4609 18.898-18.898 18.898s-18.902-8.4609-18.902-18.898c0-10.441 8.4648-18.902 18.902-18.902s18.898 8.4609 18.898 18.902"/>
    </g>
</svg>
